<svg width="176" height="63" viewBox="0 0 176 63" fill="none" xmlns="http://www.w3.org/2000/svg">
<path d="M7.76534 28.3289L10.4107 26.7433L14.592 19.1326L15.872 18.4983L17.2374 26.2148L15.4454 26.5319L14.08 23.3607L13.056 28.3289H17.5787L22.272 29.8087L24.1494 28.3289L27.3067 32.3456L28.672 24.9463L30.8907 27.6946L32.256 25.3691L34.4747 24.6292L37.7174 20.9295L38.2294 19.1326L40.8747 19.6611L41.9841 21.4581L40.0214 26.5319L44.8854 23.4664V21.9866L46.7627 21.4581L48.8107 23.995L50.8587 20.9295V18.8154L54.1867 15.9614L55.5521 13.5302H57.6854L61.4401 4.12248L64.6828 0L65.8774 2.3255L64.0001 5.28524L64.6828 7.18792L66.4748 7.61074L67.9254 15.4329V21.9866L70.4854 26.3205L71.7654 32.3456L67.3281 28.8574L65.3654 18.8154L64.1707 19.1326L64.0001 25.8977L60.7574 32.3456L59.8187 42.1762L62.0374 42.8104L62.9761 41.4362L65.1094 44.396L66.7307 53.2752L66.5601 58.9832H64.5121L63.7441 50.9497L62.2934 53.3809L59.1361 52.5352L56.5761 49.8926L53.6747 51.1611L53.8454 56.8691L51.5414 57.6091L48.1281 60.7802L44.0321 60.146L42.4107 58.9832L39.8507 59.5117L40.7041 60.7802L38.6561 62.2601L37.0347 61.3087L33.9627 63L29.2694 60.146L27.4774 55.0722L25.9414 55.2836L24.1494 53.4866L24.064 52.1124L18.3467 51.3725L17.408 55.1779L13.824 53.1695L12.032 49.4698H8.19201L7.76534 55.3893L5.54667 56.2349L4.43734 61.6258L3.584 60.6745L0 49.3641L4.26667 46.8272L3.584 41.8591L2.90134 36.7852L4.77867 33.5084L4.18134 31.5L6.74134 28.1175L7.76534 28.3289ZM64.5121 40.802L68.4374 47.9899L69.7174 47.3557L68.0961 44.396L64.5121 39.745V40.802ZM24.4054 26.2148V24.1007L27.392 21.4581L29.952 19.8725H26.9654L24.32 21.7752L22.6987 23.5721V26.2148H24.4054Z" fill="white"/>
<path d="M89.8314 49.6736H94.5546V43.3956H97.171C101.138 43.3956 103.797 40.5561 103.797 36.0025C103.797 31.5005 101.206 28.5268 97.3409 28.5268H89.8314V49.6736ZM94.5546 38.935V33.1113H96.2196C97.8761 33.1113 98.87 34.1852 98.87 36.0025C98.87 37.8095 97.8761 38.935 96.2196 38.935H94.5546Z" fill="white"/>
<path d="M111.604 49.9627C115.851 49.9627 118.366 46.6585 118.366 41.7848C118.366 36.9112 115.851 33.607 111.604 33.607C107.356 33.607 104.842 36.9112 104.842 41.7848C104.842 46.6585 107.356 49.9627 111.604 49.9627ZM111.638 45.7499C110.381 45.7499 109.633 44.232 109.633 41.7435C109.633 39.2551 110.381 37.7372 111.638 37.7372C112.827 37.7372 113.575 39.2551 113.575 41.7435C113.575 44.232 112.827 45.7499 111.638 45.7499Z" fill="white"/>
<path d="M126.555 49.9627C130.42 49.9627 132.79 47.2677 132.841 43.0652H128.492C128.39 44.7276 127.651 45.626 126.623 45.626C125.391 45.626 124.584 44.3456 124.584 41.7435C124.584 39.1415 125.391 37.8611 126.623 37.8611C127.659 37.8611 128.365 38.7594 128.492 40.4219H132.841C132.816 36.2916 130.395 33.607 126.555 33.607C122.308 33.607 119.793 36.9112 119.793 41.7848C119.793 46.6585 122.308 49.9627 126.555 49.9627Z" fill="white"/>
<path d="M141.062 49.9627C144.928 49.9627 147.298 47.2677 147.349 43.0652H142.999C142.897 44.7276 142.158 45.626 141.13 45.626C139.899 45.626 139.092 44.3456 139.092 41.7435C139.092 39.1415 139.899 37.8611 141.13 37.8611C142.167 37.8611 142.872 38.7594 142.999 40.4219H147.349C147.323 36.2916 144.902 33.607 141.062 33.607C136.815 33.607 134.3 36.9112 134.3 41.7848C134.3 46.6585 136.815 49.9627 141.062 49.9627Z" fill="white"/>
<path d="M153.701 42.4044V33.8135H149.283V49.6736H153.701L157.337 41.0414V49.6736H161.754V33.8135H157.337L153.701 42.4044Z" fill="white"/>
<path d="M171.651 49.6736H176V33.8135H169.884C166.12 33.8135 163.742 36.1264 163.767 39.348C163.75 41.155 164.642 42.6522 166.205 43.5402L163.631 49.6736H167.947L170.147 44.4282H171.651V49.6736ZM171.651 41.0001H169.986C168.737 41.0001 168.159 40.2567 168.185 39.5545C168.159 38.8937 168.703 38.0676 169.884 38.0676H171.651V41.0001Z" fill="white"/>
</svg>
